<?xml version="1.0" standalone="no"?>
<!DOCTYPE svg PUBLIC "-//W3C//DTD SVG 20010904//EN"
 "http://www.w3.org/TR/2001/REC-SVG-20010904/DTD/svg10.dtd">
<svg version="1.0" xmlns="http://www.w3.org/2000/svg"
 width="136.000000pt" height="136.000000pt" viewBox="0 0 136.000000 136.000000"
 preserveAspectRatio="xMidYMid meet">
<metadata>
Created by potrace 1.11, written by Peter Selinger 2001-2013
</metadata>
<g transform="translate(0.000000,136.000000) scale(0.100000,-0.100000)"
fill="#000000" stroke="none">
<path d="M195 1346 c-87 -27 -142 -71 -169 -137 -18 -44 -14 -166 9 -274 7
-36 18 -178 19 -245 0 -77 -11 -241 -18 -261 -3 -8 -7 -32 -10 -54 -2 -22 -8
-66 -12 -97 -10 -83 9 -142 63 -194 79 -77 80 -77 578 -80 242 -1 463 2 490 7
113 21 197 95 211 185 4 27 0 92 -10 162 -36 247 -38 376 -11 592 4 25 8 51
11 58 12 38 15 142 4 182 -14 55 -86 128 -145 149 -55 20 -949 26 -1010 7z
m666 -224 c35 -16 77 -41 92 -55 26 -25 27 -28 13 -54 -21 -40 -69 -93 -84
-93 -7 0 -35 11 -63 25 -101 52 -240 40 -255 -21 -17 -66 13 -90 196 -164 66
-26 135 -58 153 -70 156 -109 134 -329 -43 -441 -71 -45 -200 -65 -301 -47
-97 18 -239 93 -239 126 0 18 71 111 95 124 7 4 47 -9 91 -31 90 -44 155 -57
212 -42 47 13 69 36 76 78 9 48 -24 76 -154 128 -151 62 -178 76 -226 124 -46
46 -67 101 -66 177 1 97 68 194 167 239 72 33 81 34 181 30 74 -3 102 -8 155
-33z"/>
</g>
</svg>
