<svg id="Inhalt" xmlns="http://www.w3.org/2000/svg" viewBox="0 0 28 28"><defs><style>.cls-1{fill:gray;}.cls-2{fill:#636466;}</style></defs><title>stixsize none</title><path class="cls-1" d="M14.06.62c4.7,0,8.53.05,9.12.13,2.59.33,4.2,1.91,4.2,4.13a20.12,20.12,0,0,1-.29,2.29A44.1,44.1,0,0,0,26.41,14a44.17,44.17,0,0,0,.68,6.83,20,20,0,0,1,.29,2.29c0,2.22-1.61,3.8-4.2,4.13-.59.08-4.42.13-9.12.13s-8.36-.05-9-.13C2.42,26.91.89,25.41.89,23.12a19.77,19.77,0,0,1,.29-2.26A44,44,0,0,0,1.87,14a44,44,0,0,0-.69-6.86A19.77,19.77,0,0,1,.89,4.88C.89,2.62,2.46,1.08,5.1.75c.61-.08,4.29-.13,9-.13m0-.62C9.89,0,5.74,0,5,.14,2.09.5.27,2.26.27,4.88c0,1.31,1,5.21,1,9.12h0c0,3.91-1,7.81-1,9.12,0,2.62,1.82,4.37,4.75,4.74.72.09,4.87.14,9,.14s8.5,0,9.2-.14C26,27.52,28,25.79,28,23.12c0-1.33-1-5.23-1-9.12s1-7.8,1-9.12c0-2.67-2-4.4-4.74-4.74C22.56,0,18.3,0,14.06,0Z"/><path class="cls-2" d="M13.09,8.35h2.09v11.8H13.09Z"/></svg>