<svg id="Inhalt" xmlns="http://www.w3.org/2000/svg" viewBox="0 0 28 28"><defs><style>.cls-1{fill:#00a9e4;}.cls-2{fill:#fff;}</style></defs><title>stixsize 6 XL</title><path class="cls-1" d="M27.73,4.88c0-2.67-2-4.4-4.74-4.74C21.61,0,6.19,0,4.75.14,1.82.5,0,2.26,0,4.88,0,6.19,1,10.09,1,14H1c0,3.91-1,7.81-1,9.12,0,2.62,1.82,4.37,4.75,4.74,1.45.18,16.86.18,18.24,0,2.72-.35,4.74-2.08,4.74-4.74,0-1.33-1-5.23-1-9.12S27.73,6.2,27.73,4.88Z"/><path class="cls-2" d="M8.22,14.07,5.08,8.35H7.41L8.73,11c.27.54.52,1.1.88,1.8h.07c.29-.7.54-1.26.79-1.8l1.25-2.62h2.22L10.8,14.16l3.36,6H11.83l-1.44-2.78c-.31-.61-.6-1.21-.94-1.93H9.38c-.31.72-.6,1.32-.88,1.93L7.11,20.15H4.89Z"/><path class="cls-2" d="M15.86,8.35H18v10h4.89v1.77h-7Z"/></svg>